<svg width="52" height="52" viewBox="0 0 52 52" fill="none" xmlns="http://www.w3.org/2000/svg">
<path d="M29.0146 15.2879C30.387 13.9349 31.6953 12.6218 32.9989 11.3273C35.8656 8.49804 38.7339 5.67112 41.6038 2.84655C43.7407 0.763234 46.932 0.660238 49.0476 2.57736C51.308 4.6279 51.3436 8.01505 49.1022 10.2482C46.9035 12.4392 44.6834 14.6091 42.4728 16.7884L36.976 22.2097C36.8383 22.3478 36.7053 22.4906 36.5011 22.7013C37.6883 23.8483 38.8542 24.9742 40.0129 26.1142C43.8911 29.9312 47.7693 33.7545 51.6476 37.5841C52.1058 38.0359 52.1225 38.2723 51.6666 38.7171C47.5303 42.7947 43.3893 46.8724 39.2436 50.9501C38.7687 51.4183 38.5574 51.3855 38.0113 50.8471C33.1136 46.0219 28.2176 41.1952 23.3231 36.3669C23.2335 36.2612 23.154 36.1476 23.0857 36.0275L22.8126 35.9011C22.6971 36.1511 22.552 36.3868 22.3804 36.6033C19.0024 39.9491 15.6165 43.2863 12.2227 46.6149C11.9579 46.869 11.638 47.0603 11.2872 47.1744C8.31121 48.1107 5.32894 49.026 2.34033 49.9202C2.05778 50.0044 1.59714 50.0138 1.43093 49.8499C1.26472 49.6861 1.28134 49.2343 1.36682 48.9534C2.2786 45.9884 3.21254 43.0296 4.16864 40.0771C4.29071 39.7503 4.48731 39.4556 4.74325 39.2156C8.10543 35.8823 11.4763 32.5576 14.8559 29.2415C15.0937 29.0376 15.3434 28.8476 15.6038 28.6727C14.343 27.4554 13.1914 26.3599 12.0612 25.2481C8.16716 21.4185 4.27707 17.5858 0.390931 13.75C-0.124319 13.2421 -0.131442 13.0361 0.376685 12.5351C4.49235 8.47775 8.60801 4.42035 12.7237 0.362956C13.2247 -0.130954 13.436 -0.11925 13.9584 0.388705C18.3241 4.68954 22.6891 8.99194 27.0533 13.2959C27.6754 13.9349 28.307 14.5787 29.0146 15.2879ZM1.60426 13.1297L4.11877 15.6344C4.23344 15.408 4.37022 15.1932 4.52717 14.993C4.95796 14.5076 5.4272 14.0568 5.93046 13.6447C6.05817 13.5796 6.19984 13.5457 6.34361 13.5457C6.48737 13.5457 6.62904 13.5796 6.75675 13.6447C7.06306 13.832 7.00844 14.1854 6.75675 14.4593C6.62616 14.6068 6.48132 14.7402 6.34361 14.8783L4.88571 16.3202L7.06306 18.4995C7.66141 17.8909 8.27638 17.2612 8.89848 16.6269C9.15017 16.3764 9.49209 16.2758 9.72953 16.566C9.87437 16.7463 9.86725 17.0857 9.83875 17.3432C9.82213 17.4836 9.62506 17.61 9.49684 17.7317C8.94597 18.2608 8.39036 18.7874 7.9226 19.2322L10.0809 21.4255C10.6223 20.8871 11.1945 20.3207 11.762 19.7518C12.085 19.4288 12.4554 19.2111 12.8329 19.6091C13.2104 20.007 12.9326 20.3113 12.6192 20.6086L10.8265 22.2471L13.1392 24.5482C13.2437 24.3548 13.3661 24.1715 13.5049 24.0004C13.9797 23.5073 14.4697 23.0251 14.9746 22.5538C15.0268 22.4935 15.0916 22.4451 15.1646 22.412C15.2375 22.3788 15.3169 22.3616 15.3973 22.3616C15.4776 22.3616 15.557 22.3788 15.63 22.412C15.703 22.4451 15.7678 22.4935 15.8199 22.5538C15.8801 22.6061 15.9282 22.6704 15.9612 22.7424C15.9942 22.8145 16.0112 22.8926 16.0112 22.9716C16.0112 23.0507 15.9942 23.1288 15.9612 23.2008C15.9282 23.2729 15.8801 23.3372 15.8199 23.3895C15.6899 23.5363 15.552 23.6762 15.4068 23.8085C14.8844 24.3 14.3597 24.7893 13.9156 25.2129L16.2616 27.6029L25.5456 18.455L10.8811 3.97716L1.60426 13.1297ZM38.6452 49.6767L47.877 40.5803L33.2007 26.0837L23.9618 35.1801L26.3624 37.5958C26.9583 36.9895 27.5496 36.3669 28.1669 35.7676C28.5516 35.3908 28.9244 35.3908 29.1784 35.7349C29.4325 36.079 29.2805 36.3622 29.0193 36.6127C28.3996 37.2072 27.7728 37.7948 27.1839 38.3519L29.404 40.585L31.199 38.7264C31.4769 38.4408 31.7998 38.291 32.1298 38.6024C32.4599 38.9137 32.3673 39.2718 32.0586 39.5761C31.8805 39.7587 31.6929 39.9319 31.5125 40.1122L30.2422 41.3903L32.4076 43.5415L34.1267 41.7999C34.4425 41.4792 34.7987 41.2358 35.1928 41.6314C35.587 42.027 35.3139 42.3336 34.9981 42.6285L33.2482 44.2226L35.4018 46.4838C35.5419 46.3504 35.6843 46.2193 35.8244 46.0859C36.3302 45.592 36.8312 45.0934 37.3417 44.6042C37.6076 44.3514 37.9638 44.2835 38.1632 44.5901C38.2728 44.8536 38.2813 45.1473 38.187 45.4164C38.1371 45.5967 37.9092 45.7348 37.7501 45.8846C37.2348 46.3528 36.7148 46.8209 36.2162 47.2891L38.6452 49.6767ZM38.1015 8.12741L7.97008 37.8276L10.2519 40.0771L40.3857 10.3769L38.1015 8.12741ZM13.5286 43.4502L43.7241 13.7009L41.466 11.4677L11.2753 41.2241L13.5286 43.4502ZM11.8855 2.95423L26.6449 17.5211L28.0411 16.1611L13.2912 1.61529L11.8855 2.95423ZM34.2383 24.9906L48.993 39.5457L50.3962 38.2138L35.6107 23.6165L34.2383 24.9906ZM41.2001 5.06563L46.8631 10.6836C47.4306 10.1452 48.0764 9.62084 48.6131 9.00287C49.2692 8.23709 49.6114 7.25722 49.5725 6.25551C49.5337 5.25381 49.1165 4.3026 48.4028 3.58851C47.6892 2.87442 46.7306 2.44902 45.7152 2.39577C44.6998 2.34251 43.7009 2.66526 42.9144 3.30067C42.3138 3.85612 41.7447 4.44377 41.2096 5.06095L41.2001 5.06563ZM5.08754 41.1515L2.75348 48.5508L10.2258 46.2591L5.08754 41.1515ZM45.9062 11.6831L40.2076 6.06516L39.0845 7.06702L44.7831 12.7271L45.9062 11.6831ZM5.82361 39.8664L11.5365 45.4843L12.5978 44.459L6.93484 38.8411L5.82361 39.8664Z" fill="white"/>
</svg>
