<svg width="52" height="53" viewBox="0 0 52 53" fill="none" xmlns="http://www.w3.org/2000/svg">
<path d="M12.2103 48.9525V47.5296H13.6332V48.9525H12.2103Z" fill="white" stroke="#FF6647" stroke-width="0.3"/>
<path d="M17.079 37.0422V37.1922H17.229H31.8736C32.0623 37.1922 32.2433 37.2672 32.3767 37.4006C32.5101 37.534 32.5851 37.715 32.5851 37.9037V51.6868C32.5851 51.8755 32.5101 52.0565 32.3767 52.1899C32.2433 52.3233 32.0623 52.3983 31.8736 52.3983H0.861449C0.67276 52.3983 0.491801 52.3233 0.358379 52.1899C0.224956 52.0565 0.15 51.8755 0.15 51.6868V24.1205C0.15 23.9318 0.224956 23.7508 0.358378 23.6174C0.491801 23.484 0.672761 23.409 0.861449 23.409H16.3675C16.5562 23.409 16.7372 23.484 16.8706 23.6174C17.004 23.7508 17.079 23.9318 17.079 24.1205V37.0422ZM22.3977 38.6151H22.2477V38.7651V42.2109V42.3609H22.3977H25.8435H25.9935V42.2109V38.7651V38.6151H25.8435H22.3977ZM6.89159 24.8319H6.74159V24.9819V28.4277V28.5777H6.89159H10.3374H10.4874V28.4277V24.9819V24.8319H10.3374H6.89159ZM1.7229 24.8319H1.5729V24.9819V37.0422V37.1922H1.7229H15.5061H15.6561V37.0422V24.9819V24.8319H15.5061H12.0603H11.9103V24.9819V29.2892C11.9103 29.4779 11.8353 29.6588 11.7019 29.7922C11.5685 29.9257 11.3875 30.0006 11.1988 30.0006H6.03014C5.84145 30.0006 5.66049 29.9257 5.52707 29.7922C5.39365 29.6588 5.31869 29.4779 5.31869 29.2892V24.9819V24.8319H5.16869H1.7229ZM6.89159 38.6151H6.74159V38.7651V42.2109V42.3609H6.89159H10.3374H10.4874V42.2109V38.7651V38.6151H10.3374H6.89159ZM1.7229 38.6151H1.5729V38.7651V50.8254V50.9754H1.7229H15.5061H15.6561V50.8254V38.7651V38.6151H15.5061H12.0603H11.9103V38.7651V43.0724C11.9103 43.261 11.8353 43.442 11.7019 43.5754C11.5685 43.7088 11.3875 43.7838 11.1988 43.7838H6.03014C5.84145 43.7838 5.66049 43.7088 5.52707 43.5754C5.39365 43.442 5.31869 43.261 5.31869 43.0724V38.7651V38.6151H5.16869H1.7229ZM31.0122 50.9754H31.1622V50.8254V38.7651V38.6151H31.0122H27.5664H27.4164V38.7651V43.0724C27.4164 43.261 27.3414 43.442 27.208 43.5754C27.0746 43.7088 26.8936 43.7838 26.7049 43.7838H21.5362C21.3475 43.7838 21.1666 43.7088 21.0332 43.5754C20.8997 43.442 20.8248 43.261 20.8248 43.0724V38.7651V38.6151H20.6748H17.229H17.079V38.7651V50.8254V50.9754H17.229H31.0122Z" fill="white" stroke="#FF6647" stroke-width="0.3"/>
<path d="M27.7164 48.9525V47.5296H29.1393V48.9525H27.7164Z" fill="white" stroke="#FF6647" stroke-width="0.3"/>
<path d="M12.2103 35.1693V33.7464H13.6332V35.1693H12.2103Z" fill="white" stroke="#FF6647" stroke-width="0.3"/>
<path d="M26.0457 3.46994L49.8142 9.20717V9.24337H49.9642L49.9994 9.09756L49.9642 9.08907V7.57001L26.0457 3.46994ZM26.0457 3.46994C25.9795 3.45389 25.9117 3.44579 25.8436 3.44582L26.0457 3.46994ZM50.6589 11.029L50.6587 11.0289L49.1379 10.6618L48.9527 10.6171V10.8077V50.8255V50.9755H49.1027H51.5371V52.3984H34.6081V50.9755H40.4882H40.6382V50.8255V31.8736V31.7236H40.4882H19.102V30.3007H40.4882H40.6382V30.1507V28.4278V28.2778H40.4882H19.102V26.8549H40.4882H40.6382V26.7049V24.982V24.832H40.4882H19.102V23.4091H40.4882H40.6382V23.2591V21.5362V21.3862H40.4882H10.3375C10.1488 21.3862 9.96786 21.3113 9.83444 21.1779C9.70101 21.0444 9.62606 20.8635 9.62606 20.6748V17.229C9.62606 17.0403 9.70101 16.8594 9.83444 16.7259C9.96786 16.5925 10.1488 16.5176 10.3375 16.5176H41.3497C41.5384 16.5176 41.7193 16.5925 41.8527 16.7259C41.9862 16.8594 42.0611 17.0403 42.0611 17.229V50.8255V50.9755H42.2111H47.3798H47.5298V50.8255V10.3918V10.2737L47.415 10.246L25.8788 5.04757L25.8436 5.03907L25.8084 5.04757L4.27217 10.246L4.15736 10.2737V10.3918V21.3862H2.73447V10.8077V10.6172L2.54928 10.6618L1.02828 11.0289C1.02825 11.0289 1.02822 11.0289 1.02819 11.0289C1.02819 11.0289 1.02818 11.0289 1.02817 11.0289C0.887401 11.0628 0.739661 11.0529 0.604612 11.0007C0.469859 10.9487 0.354119 10.8569 0.272714 10.7375C0.190384 10.6124 0.147654 10.4653 0.150099 10.3154H0.150119V10.313V6.89163C0.150119 6.89163 0.150119 6.89162 0.150119 6.89162C0.150136 6.73198 0.203845 6.57698 0.302607 6.45155C0.401373 6.32613 0.539454 6.23756 0.694645 6.2001L0.659451 6.05429L0.694647 6.2001L25.6767 0.169961L25.6768 0.169927C25.7864 0.143358 25.9008 0.143358 26.0104 0.169927L26.0105 0.169961L50.9925 6.2001C51.1477 6.23756 51.2858 6.32613 51.3846 6.45155C51.4833 6.57698 51.537 6.73199 51.5371 6.89162L51.537 10.3176L51.5371 10.32C51.5392 10.4513 51.5061 10.5808 51.4414 10.6951C51.3786 10.8025 51.2888 10.8917 51.1809 10.9538C51.0728 11.016 50.9502 11.0488 50.8255 11.0489C50.7694 11.0489 50.7134 11.0422 50.6589 11.029ZM11.049 19.8134V19.9634H11.199H40.4882H40.6382V19.8134V18.0905V17.9405H40.4882H11.199H11.049V18.0905V19.8134ZM25.6767 3.61576L25.6768 3.61571C25.7314 3.60247 25.7874 3.5958 25.8435 3.59582H25.8437C25.8998 3.5958 25.9558 3.60247 26.0103 3.61571L26.0105 3.61576L49.929 9.38919L50.1142 9.43389V9.24337V7.57001V7.45191L49.9994 7.4242L25.8788 1.60188L25.8436 1.59338L25.8084 1.60188L1.68782 7.4242L1.57302 7.45191V7.57001V9.24327V9.43378L1.75821 9.38908L25.6767 3.61576Z" fill="white" stroke="#FF6647" stroke-width="0.3"/>
<path d="M24.1207 10.1874L24.1206 10.1874C23.8524 10.1877 23.5954 10.2943 23.4058 10.4839C23.2162 10.6735 23.1096 10.9306 23.1093 11.1987L23.1093 11.199C23.1096 11.4671 23.2162 11.7242 23.4058 11.9138C23.5954 12.1034 23.8524 12.21 24.1206 12.2103H24.1207H27.5665C27.8348 12.2103 28.092 12.1037 28.2817 11.9141C28.4714 11.7244 28.578 11.4671 28.578 11.1988C28.578 10.9306 28.4714 10.6733 28.2817 10.4836C28.092 10.294 27.8348 10.1874 27.5665 10.1874L24.1207 10.1874ZM29.2879 12.9202C28.8313 13.3767 28.2121 13.6332 27.5665 13.6332H24.1207C23.4751 13.6332 22.8559 13.3767 22.3994 12.9202C21.9429 12.4637 21.6864 11.8445 21.6864 11.1988C21.6864 10.5532 21.9429 9.93403 22.3994 9.47751C22.8559 9.02098 23.4751 8.7645 24.1207 8.7645H27.5665C28.2121 8.7645 28.8313 9.02098 29.2879 9.47751C29.7444 9.93403 30.0009 10.5532 30.0009 11.1988C30.0009 11.8445 29.7444 12.4637 29.2879 12.9202Z" fill="white" stroke="#FF6647" stroke-width="0.3"/>
</svg>
