<svg width="53" height="53" viewBox="0 0 53 53" fill="none" xmlns="http://www.w3.org/2000/svg">
<path d="M30.4836 15.3417C32.2963 15.3417 33.7707 16.816 33.7707 18.6288C33.7707 20.4415 32.2963 21.9158 30.4836 21.9158H18.6289C16.8161 21.9158 15.3418 20.4415 15.3418 18.6288C15.3418 16.816 16.8161 15.3417 18.6289 15.3417H30.4836ZM18.6289 16.8352C17.6397 16.8352 16.8354 17.6396 16.8354 18.6288C16.8354 19.618 17.6397 20.4223 18.6289 20.4223H30.4836C31.4728 20.4223 32.2771 19.618 32.2771 18.6288C32.2771 17.6396 31.4728 16.8352 30.4836 16.8352H18.6289Z" fill="white" stroke="#FF6647" stroke-width="0.2"/>
<path d="M50.7059 33.8706V33.9706H50.8059H51.6527C52.0649 33.9706 52.3995 34.3052 52.3995 34.7174V51.6527C52.3995 52.0649 52.0649 52.3995 51.6527 52.3995H24.5562C24.144 52.3995 23.8094 52.0649 23.8094 51.6527V40.6448V40.5448H23.7094H2.5403C2.12811 40.5448 1.79353 40.2102 1.79353 39.798V11.8547V11.7547H1.69353H0.846766C0.43458 11.7547 0.1 11.4201 0.1 11.008V0.846766C0.1 0.43458 0.43458 0.1 0.846766 0.1H48.2656C48.6778 0.1 49.0124 0.43458 49.0124 0.846766V11.008C49.0124 11.4201 48.6778 11.7547 48.2656 11.7547H47.4189H47.3189V11.8547V24.2056V24.4471L47.4896 24.2764L47.7377 24.0283C48.0297 23.7362 48.5016 23.7362 48.7936 24.0283L52.1807 27.4153C52.4727 27.7073 52.4727 28.1792 52.1807 28.4712L49.3923 31.2596L49.2216 31.4303H49.463H49.9592C50.3714 31.4303 50.7059 31.7649 50.7059 32.1771V33.8706ZM49.2124 33.0239V32.9239H49.1124H47.7694H47.728L47.6987 32.9532L46.852 33.7999L46.6813 33.9706H46.9227H49.1124H49.2124V33.8706V33.0239ZM48.3364 25.6828L48.2656 25.6121L48.1949 25.6828L40.0778 33.7999L39.9071 33.9706H40.1485H44.528H44.5694L44.5987 33.9413L50.5261 28.014L50.5968 27.9433L50.5261 27.8726L48.3364 25.6828ZM42.409 29.3569L42.4383 29.3277V29.2862V23.7094V23.6094H42.3383H35.5642H35.4642V23.7094V25.403V25.503H35.5642H38.1045C38.5166 25.503 38.8512 25.8375 38.8512 26.2497V32.6733V32.9147L39.0219 32.744L42.409 29.3569ZM37.3577 27.0965V26.9965H37.2577H27.0965H26.9965V27.0965V33.8706V33.9706H27.0965H37.2577H37.3577V33.8706V27.0965ZM1.69353 1.59353H1.59353V1.69353V10.1612V10.2612H1.69353H47.4189H47.5189V10.1612V1.69353V1.59353H47.4189H1.69353ZM23.7094 39.0512H23.8094V38.9512V34.7174C23.8094 34.3052 24.144 33.9706 24.5562 33.9706H25.403H25.503V33.8706V26.2497C25.503 25.8376 25.8376 25.503 26.2497 25.503H33.8706H33.9706V25.403V22.8627C33.9706 22.4505 34.3052 22.1159 34.7174 22.1159H43.1851C43.5972 22.1159 43.9318 22.4505 43.9318 22.8627V27.5927V27.8341L44.1025 27.6634L45.7961 25.9699L45.8253 25.9406V25.8992V11.8547V11.7547H45.7253H3.38706H3.28706V11.8547V38.9512V39.0512H3.38706H23.7094ZM50.8059 50.9059H50.9059V50.8059V35.5642V35.4642H50.8059H25.403H25.303V35.5642V50.8059V50.9059H25.403H50.8059Z" fill="white" stroke="#FF6647" stroke-width="0.2"/>
<path d="M41.4914 42.2384H34.7173C33.372 42.2384 32.277 41.1434 32.277 39.7981C32.277 38.4528 33.372 37.3578 34.7173 37.3578H41.4914C42.8367 37.3578 43.9317 38.4528 43.9317 39.7981C43.9317 41.1434 42.8367 42.2384 41.4914 42.2384ZM41.4914 38.8513H34.7173C34.1955 38.8513 33.7705 39.2763 33.7705 39.7981C33.7705 40.3199 34.1955 40.7449 34.7173 40.7449H41.4914C42.0132 40.7449 42.4382 40.3199 42.4382 39.7981C42.4382 39.2763 42.0132 38.8513 41.4914 38.8513Z" fill="white" stroke="#FF6647" stroke-width="0.2"/>
</svg>
