<svg width="56" height="57" viewBox="0 0 56 57" fill="none" xmlns="http://www.w3.org/2000/svg">
<mask id="path-1-inside-1" fill="white">
<path d="M55.9973 48.1111C55.9422 45.9772 55.039 44.0144 53.4539 42.5846L36.0642 26.8999L51.4398 11.5243C51.5408 11.4942 51.6407 11.4566 51.737 11.4057L55.0666 9.64841C55.5266 9.40554 55.8351 8.97111 55.9127 8.45686C55.9904 7.94249 55.8241 7.4365 55.4563 7.06834L51.7073 3.3195C51.3394 2.95168 50.8337 2.78532 50.3189 2.86305C49.8047 2.94067 49.3703 3.24915 49.1273 3.70924L47.3699 7.03862C47.3186 7.13583 47.2792 7.23635 47.2489 7.3384L39.9915 14.5959C39.6541 14.9333 39.6541 15.48 39.9915 15.8175C40.3289 16.1546 40.8756 16.1546 41.2131 15.8175L47.8729 9.1575L49.6183 10.9028L32.5866 27.9345L30.8413 26.1892L38.2754 18.7551C38.6127 18.4177 38.6127 17.871 38.2754 17.5335C37.938 17.1964 37.3912 17.1964 37.0538 17.5335L31.6598 22.9275L25.7893 17.6326C27.4538 12.8417 26.2484 7.51147 22.6379 3.90102C18.9397 0.202828 13.3918 -0.975738 8.50379 0.898847C8.23065 1.00366 8.02907 1.23948 7.96829 1.52562C7.90752 1.81175 7.99549 2.10923 8.20236 2.3161L14.9833 9.09717C15.1839 9.29776 15.2946 9.56452 15.2946 9.84824C15.2946 10.132 15.184 10.3987 14.9833 10.5994L10.5796 15.0031C10.379 15.2038 10.1123 15.3143 9.82856 15.3143C9.54485 15.3143 9.27809 15.2039 9.07739 15.0031L2.29632 8.22202C2.08934 8.01516 1.79208 7.92719 1.50584 7.98796C1.2197 8.04885 0.983878 8.25032 0.879068 8.52346C-0.995516 13.4112 0.183049 18.9591 3.88135 22.6576C7.4034 26.1795 12.6304 27.4195 17.3458 25.8959L21.8847 30.8593C21.6666 31.2855 21.383 31.6829 21.0332 32.0327C19.7249 33.341 17.764 33.7532 16.0371 33.083C15.718 32.9588 15.3559 33.0352 15.1137 33.2773L4.53807 43.8529C1.67516 46.7159 1.67516 51.3742 4.53807 54.237C5.92515 55.6244 7.76913 56.3881 9.73047 56.3881C11.6917 56.3881 13.5358 55.6244 14.9227 54.2375L25.4982 43.662C25.7402 43.4199 25.8165 43.0577 25.6926 42.7385C25.0222 41.0118 25.4344 39.0507 26.7426 37.7423C28.0512 36.4339 30.0122 36.0217 31.739 36.692C32.0584 36.8162 32.4202 36.7396 32.6625 36.4977L34.6574 34.5028C35.258 33.9021 35.5888 33.1033 35.5888 32.254C35.5888 31.4046 35.258 30.6058 34.6574 30.0052L33.8082 29.156L34.8412 28.123L52.297 43.8673C53.527 44.9767 54.2279 46.4998 54.2705 48.1556C54.3131 49.8115 53.6916 51.3685 52.5203 52.5397C51.3546 53.7056 49.8015 54.3261 48.1565 54.2906C46.5083 54.2538 44.9879 53.5635 43.8754 52.3468L30.8964 38.1539C30.5742 37.8018 30.0281 37.7775 29.6761 38.0995C29.3242 38.4215 29.2997 38.9678 29.6216 39.3197L42.6005 53.5126C44.0344 55.0805 45.9938 55.97 48.1179 56.0175C48.1773 56.0188 48.2367 56.0195 48.296 56.0195C50.3535 56.0195 52.2813 55.2214 53.7418 53.7612C55.2512 52.2517 56.0521 50.2451 55.9973 48.1111ZM48.9342 7.7757L50.5878 4.64306L54.1327 8.18801L51.0001 9.84152L48.9342 7.7757ZM18.2371 24.3107C17.9993 24.0509 17.6278 23.9613 17.2977 24.0844C13.0742 25.6598 8.28702 24.6203 5.10275 21.4364C2.21144 18.545 1.09111 14.3532 2.07833 10.4473L7.85578 16.2247C8.3828 16.7516 9.08333 17.0417 9.82845 17.0417C10.5736 17.0417 11.2741 16.7516 11.801 16.2247L16.2047 11.821C16.7316 11.294 17.0217 10.5935 17.0217 9.84835C17.0217 9.10322 16.7316 8.40269 16.2047 7.87578L10.4274 2.09811C14.333 1.11045 18.5252 2.23111 21.4164 5.12253C24.6817 8.38761 25.6851 13.2699 23.973 17.5608C23.839 17.8965 23.9282 18.2802 24.1967 18.5223L30.4368 24.1505L29.6196 24.9677L28.7705 24.1185C28.1698 23.5178 27.3711 23.1871 26.5217 23.1871C25.6723 23.1871 24.8736 23.5178 24.2729 24.1185L22.278 26.1134C22.036 26.3555 21.9597 26.7177 22.0837 27.0369C22.3134 27.6287 22.4131 28.2476 22.396 28.8588L18.2371 24.3107ZM33.4356 33.2813L31.8192 34.8978C29.5962 34.2569 27.1772 34.8649 25.5213 36.5207H25.5211C23.8653 38.1766 23.2573 40.5953 23.8984 42.8188L13.7011 53.0158C12.6405 54.0764 11.2304 54.6606 9.73058 54.6606C8.23076 54.6606 6.82044 54.0764 5.76001 53.0158C3.57056 50.8264 3.57056 47.264 5.76001 45.0745L15.9571 34.8774C18.1804 35.5186 20.599 34.9102 22.2551 33.2544C23.9109 31.5985 24.5191 29.1798 23.878 26.9564L25.4945 25.34C26.0608 24.7735 26.9827 24.7735 27.549 25.34L29.009 26.8L31.9757 29.7667L33.4356 31.2267C34.0022 31.7932 34.0022 32.7149 33.4356 33.2813Z"/>
</mask>
<path d="M55.9973 48.1111C55.9422 45.9772 55.039 44.0144 53.4539 42.5846L36.0642 26.8999L51.4398 11.5243C51.5408 11.4942 51.6407 11.4566 51.737 11.4057L55.0666 9.64841C55.5266 9.40554 55.8351 8.97111 55.9127 8.45686C55.9904 7.94249 55.8241 7.4365 55.4563 7.06834L51.7073 3.3195C51.3394 2.95168 50.8337 2.78532 50.3189 2.86305C49.8047 2.94067 49.3703 3.24915 49.1273 3.70924L47.3699 7.03862C47.3186 7.13583 47.2792 7.23635 47.2489 7.3384L39.9915 14.5959C39.6541 14.9333 39.6541 15.48 39.9915 15.8175C40.3289 16.1546 40.8756 16.1546 41.2131 15.8175L47.8729 9.1575L49.6183 10.9028L32.5866 27.9345L30.8413 26.1892L38.2754 18.7551C38.6127 18.4177 38.6127 17.871 38.2754 17.5335C37.938 17.1964 37.3912 17.1964 37.0538 17.5335L31.6598 22.9275L25.7893 17.6326C27.4538 12.8417 26.2484 7.51147 22.6379 3.90102C18.9397 0.202828 13.3918 -0.975738 8.50379 0.898847C8.23065 1.00366 8.02907 1.23948 7.96829 1.52562C7.90752 1.81175 7.99549 2.10923 8.20236 2.3161L14.9833 9.09717C15.1839 9.29776 15.2946 9.56452 15.2946 9.84824C15.2946 10.132 15.184 10.3987 14.9833 10.5994L10.5796 15.0031C10.379 15.2038 10.1123 15.3143 9.82856 15.3143C9.54485 15.3143 9.27809 15.2039 9.07739 15.0031L2.29632 8.22202C2.08934 8.01516 1.79208 7.92719 1.50584 7.98796C1.2197 8.04885 0.983878 8.25032 0.879068 8.52346C-0.995516 13.4112 0.183049 18.9591 3.88135 22.6576C7.4034 26.1795 12.6304 27.4195 17.3458 25.8959L21.8847 30.8593C21.6666 31.2855 21.383 31.6829 21.0332 32.0327C19.7249 33.341 17.764 33.7532 16.0371 33.083C15.718 32.9588 15.3559 33.0352 15.1137 33.2773L4.53807 43.8529C1.67516 46.7159 1.67516 51.3742 4.53807 54.237C5.92515 55.6244 7.76913 56.3881 9.73047 56.3881C11.6917 56.3881 13.5358 55.6244 14.9227 54.2375L25.4982 43.662C25.7402 43.4199 25.8165 43.0577 25.6926 42.7385C25.0222 41.0118 25.4344 39.0507 26.7426 37.7423C28.0512 36.4339 30.0122 36.0217 31.739 36.692C32.0584 36.8162 32.4202 36.7396 32.6625 36.4977L34.6574 34.5028C35.258 33.9021 35.5888 33.1033 35.5888 32.254C35.5888 31.4046 35.258 30.6058 34.6574 30.0052L33.8082 29.156L34.8412 28.123L52.297 43.8673C53.527 44.9767 54.2279 46.4998 54.2705 48.1556C54.3131 49.8115 53.6916 51.3685 52.5203 52.5397C51.3546 53.7056 49.8015 54.3261 48.1565 54.2906C46.5083 54.2538 44.9879 53.5635 43.8754 52.3468L30.8964 38.1539C30.5742 37.8018 30.0281 37.7775 29.6761 38.0995C29.3242 38.4215 29.2997 38.9678 29.6216 39.3197L42.6005 53.5126C44.0344 55.0805 45.9938 55.97 48.1179 56.0175C48.1773 56.0188 48.2367 56.0195 48.296 56.0195C50.3535 56.0195 52.2813 55.2214 53.7418 53.7612C55.2512 52.2517 56.0521 50.2451 55.9973 48.1111ZM48.9342 7.7757L50.5878 4.64306L54.1327 8.18801L51.0001 9.84152L48.9342 7.7757ZM18.2371 24.3107C17.9993 24.0509 17.6278 23.9613 17.2977 24.0844C13.0742 25.6598 8.28702 24.6203 5.10275 21.4364C2.21144 18.545 1.09111 14.3532 2.07833 10.4473L7.85578 16.2247C8.3828 16.7516 9.08333 17.0417 9.82845 17.0417C10.5736 17.0417 11.2741 16.7516 11.801 16.2247L16.2047 11.821C16.7316 11.294 17.0217 10.5935 17.0217 9.84835C17.0217 9.10322 16.7316 8.40269 16.2047 7.87578L10.4274 2.09811C14.333 1.11045 18.5252 2.23111 21.4164 5.12253C24.6817 8.38761 25.6851 13.2699 23.973 17.5608C23.839 17.8965 23.9282 18.2802 24.1967 18.5223L30.4368 24.1505L29.6196 24.9677L28.7705 24.1185C28.1698 23.5178 27.3711 23.1871 26.5217 23.1871C25.6723 23.1871 24.8736 23.5178 24.2729 24.1185L22.278 26.1134C22.036 26.3555 21.9597 26.7177 22.0837 27.0369C22.3134 27.6287 22.4131 28.2476 22.396 28.8588L18.2371 24.3107ZM33.4356 33.2813L31.8192 34.8978C29.5962 34.2569 27.1772 34.8649 25.5213 36.5207H25.5211C23.8653 38.1766 23.2573 40.5953 23.8984 42.8188L13.7011 53.0158C12.6405 54.0764 11.2304 54.6606 9.73058 54.6606C8.23076 54.6606 6.82044 54.0764 5.76001 53.0158C3.57056 50.8264 3.57056 47.264 5.76001 45.0745L15.9571 34.8774C18.1804 35.5186 20.599 34.9102 22.2551 33.2544C23.9109 31.5985 24.5191 29.1798 23.878 26.9564L25.4945 25.34C26.0608 24.7735 26.9827 24.7735 27.549 25.34L29.009 26.8L31.9757 29.7667L33.4356 31.2267C34.0022 31.7932 34.0022 32.7149 33.4356 33.2813Z" fill="white" stroke="#FF6647" stroke-width="0.6" mask="url(#path-1-inside-1)"/>
</svg>
