<svg width="15" height="15" viewBox="0 0 15 15" fill="none" xmlns="http://www.w3.org/2000/svg">
<path d="M7.50152 1H7.49822C3.91434 1 1 3.91535 1 7.5C1 8.92188 1.4583 10.2396 2.23754 11.3099L1.42758 13.7245L3.92602 12.9257C4.95357 13.6067 6.17969 14 7.50152 14C11.0857 14 14 11.0839 14 7.5C14 3.91611 11.0857 1 7.50152 1Z" stroke="#6A6A6A" stroke-width="1.5"/>
<path d="M11.1284 10.2542C10.975 10.7193 10.3666 11.1049 9.88127 11.2177C9.54912 11.2937 9.11545 11.3542 7.65554 10.7041C5.78803 9.8729 4.5853 7.8343 4.49147 7.70204C4.40161 7.56978 3.73682 6.62261 3.73682 5.64291C3.73682 4.66321 4.20003 4.18643 4.38671 3.98164C4.54012 3.81364 4.79333 3.73685 5.0366 3.73685C5.1153 3.73685 5.18605 3.74111 5.2496 3.74458C5.43627 3.75311 5.53011 3.76511 5.65323 4.08164C5.80665 4.47842 6.18 5.45812 6.22444 5.55865C6.26962 5.65945 6.31504 5.79598 6.25149 5.92824C6.19192 6.06477 6.13954 6.1253 6.0457 6.24129C5.95187 6.35729 5.863 6.44609 5.76916 6.57062C5.68327 6.67888 5.58646 6.79514 5.69444 6.99567C5.80243 7.19193 6.17578 7.8463 6.72563 8.37215C7.43511 9.05053 8.01003 9.26732 8.21582 9.35932C8.36924 9.42758 8.55194 9.41132 8.6639 9.28332C8.80614 9.11853 8.98165 8.84547 9.16038 8.57668C9.28748 8.38388 9.44784 8.35989 9.6164 8.42815C9.78793 8.49215 10.696 8.97426 10.8827 9.07399C11.0693 9.17479 11.1925 9.22252 11.2377 9.30705C11.2818 9.39158 11.2818 9.78837 11.1284 10.2542Z" fill="#6A6A6A"/>
</svg>
