<svg width="14" height="15" viewBox="0 0 14 15" fill="none" xmlns="http://www.w3.org/2000/svg">
<path d="M13.5969 8.68359C14.0442 4.9202 13.3823 2.54423 12.188 1.46942L12.1884 1.46864C10.2616 -0.366416 3.75387 -0.638045 1.44854 1.55138C0.413145 2.62228 0.0486316 4.19391 0.0088239 6.1398C-0.0309838 8.08608 -0.0785968 11.732 3.31911 12.7213H3.32223L3.31911 14.2321C3.31911 14.2321 3.29608 14.844 3.68674 14.967C4.13399 15.1117 4.33615 14.8276 5.72669 13.1666C8.05193 13.3684 9.83781 12.9063 10.0408 12.8388C10.5102 12.6811 13.1672 12.3295 13.5969 8.68359ZM5.95578 12.1035C5.95578 12.1035 4.48407 13.9386 4.02628 14.4151C3.87641 14.5701 3.71211 14.5556 3.71484 14.2485C3.71484 14.0467 3.72616 11.741 3.72616 11.741C0.845176 10.9152 1.01533 7.81055 1.04656 6.18663C1.07778 4.56193 1.37516 3.23111 2.25171 2.33504C4.2741 0.438714 9.97987 0.862549 11.4332 2.22889C13.2101 3.80441 12.5779 8.25546 12.5818 8.40689C12.2165 11.4502 10.0634 11.6434 9.66765 11.7749C9.49827 11.8315 7.92743 12.2354 5.95578 12.1035Z" fill="#6A6A6A"/>
<path d="M6.76991 2.69173C6.5295 2.69173 6.5295 3.06639 6.76991 3.06951C8.63501 3.08395 10.1711 4.38394 10.1883 6.7685C10.1883 7.02023 10.5567 7.01711 10.5536 6.76538H10.5528C10.5329 4.19583 8.85552 2.70578 6.76991 2.69173Z" fill="#6A6A6A"/>
<path d="M9.22321 6.3732C9.21775 6.6218 9.58538 6.63351 9.58851 6.38179C9.61895 4.9651 8.74552 3.7978 7.10404 3.67486C6.86363 3.6573 6.83865 4.03508 7.07828 4.05265C8.50238 4.16075 9.25209 5.13253 9.22321 6.3732Z" fill="#6A6A6A"/>
<path d="M8.83019 7.98467C8.52188 7.80632 8.20771 7.91715 8.07775 8.09278L7.80612 8.44441C7.66796 8.62277 7.40999 8.59935 7.40999 8.59935C5.52771 8.10175 5.02465 6.13205 5.02465 6.13205C5.02465 6.13205 5.00163 5.8655 5.17374 5.72227L5.51327 5.44127C5.68304 5.30663 5.79076 4.98192 5.61748 4.66268C5.15539 3.8275 4.84513 3.53987 4.68707 3.31898C4.5212 3.11096 4.27104 3.06413 4.01151 3.20463H4.00565C3.46552 3.52075 2.87426 4.11201 3.06354 4.72083C3.38629 5.36283 3.97951 7.40902 5.87037 8.95489C6.75902 9.68625 8.16517 10.4356 8.76228 10.6085L8.76775 10.6171C9.35589 10.813 9.92802 10.1987 10.2332 9.64215V9.63786C10.3686 9.36857 10.3238 9.11373 10.1259 8.94708C9.77543 8.60559 9.24583 8.22781 8.83019 7.98467Z" fill="#6A6A6A"/>
<path d="M7.36113 5.06891C7.96137 5.10403 8.25212 5.41742 8.28334 6.06137C8.29466 6.31309 8.65996 6.29553 8.64864 6.0438C8.60883 5.20316 8.17056 4.73483 7.38104 4.69112C7.14102 4.67668 7.11838 5.05447 7.36113 5.06891Z" fill="#6A6A6A"/>
</svg>
